solid Z88AURORA V2
  facet normal -1.000000E+00 0.000000E+00 -0.000000E+00
    outer loop
      vertex 0.000000E+00 1.000000E+06 2.000000E+05
      vertex 0.000000E+00 1.000000E+06 0.000000E+00
      vertex 0.000000E+00 0.000000E+00 0.000000E+00
    endloop
  endfacet
  facet normal -1.000000E+00 -0.000000E+00 0.000000E+00
    outer loop
      vertex 0.000000E+00 1.000000E+06 2.000000E+05
      vertex 0.000000E+00 0.000000E+00 0.000000E+00
      vertex 0.000000E+00 0.000000E+00 2.000000E+05
    endloop
  endfacet
  facet normal 1.000000E+00 0.000000E+00 0.000000E+00
    outer loop
      vertex 2.000000E+05 0.000000E+00 0.000000E+00
      vertex 2.000000E+05 1.000000E+06 0.000000E+00
      vertex 2.000000E+05 1.000000E+06 2.000000E+05
    endloop
  endfacet
  facet normal 1.000000E+00 -0.000000E+00 0.000000E+00
    outer loop
      vertex 2.000000E+05 0.000000E+00 2.000000E+05
      vertex 2.000000E+05 0.000000E+00 0.000000E+00
      vertex 2.000000E+05 1.000000E+06 2.000000E+05
    endloop
  endfacet
  facet normal 0.000000E+00 -1.000000E+00 0.000000E+00
    outer loop
      vertex 0.000000E+00 0.000000E+00 0.000000E+00
      vertex 2.000000E+05 0.000000E+00 0.000000E+00
      vertex 2.000000E+05 0.000000E+00 2.000000E+05
    endloop
  endfacet
  facet normal 0.000000E+00 -1.000000E+00 0.000000E+00
    outer loop
      vertex 0.000000E+00 0.000000E+00 2.000000E+05
      vertex 0.000000E+00 0.000000E+00 0.000000E+00
      vertex 2.000000E+05 0.000000E+00 2.000000E+05
    endloop
  endfacet
  facet normal 0.000000E+00 1.000000E+00 0.000000E+00
    outer loop
      vertex 2.000000E+05 1.000000E+06 2.000000E+05
      vertex 2.000000E+05 1.000000E+06 0.000000E+00
      vertex 0.000000E+00 1.000000E+06 0.000000E+00
    endloop
  endfacet
  facet normal 0.000000E+00 1.000000E+00 0.000000E+00
    outer loop
      vertex 2.000000E+05 1.000000E+06 2.000000E+05
      vertex 0.000000E+00 1.000000E+06 0.000000E+00
      vertex 0.000000E+00 1.000000E+06 2.000000E+05
    endloop
  endfacet
  facet normal 0.000000E+00 0.000000E+00 -1.000000E+00
    outer loop
      vertex 2.000000E+05 0.000000E+00 0.000000E+00
      vertex 0.000000E+00 0.000000E+00 0.000000E+00
      vertex 0.000000E+00 1.000000E+06 0.000000E+00
    endloop
  endfacet
  facet normal 0.000000E+00 0.000000E+00 -1.000000E+00
    outer loop
      vertex 2.000000E+05 0.000000E+00 0.000000E+00
      vertex 0.000000E+00 1.000000E+06 0.000000E+00
      vertex 2.000000E+05 1.000000E+06 0.000000E+00
    endloop
  endfacet
  facet normal 0.000000E+00 0.000000E+00 1.000000E+00
    outer loop
      vertex 0.000000E+00 1.000000E+06 2.000000E+05
      vertex 0.000000E+00 0.000000E+00 2.000000E+05
      vertex 2.000000E+05 0.000000E+00 2.000000E+05
    endloop
  endfacet
  facet normal 0.000000E+00 0.000000E+00 1.000000E+00
    outer loop
      vertex 2.000000E+05 1.000000E+06 2.000000E+05
      vertex 0.000000E+00 1.000000E+06 2.000000E+05
      vertex 2.000000E+05 0.000000E+00 2.000000E+05
    endloop
  endfacet
endsolid AURORA_V2
